<?xml version="1.0" encoding="utf-8"?>
<!-- Generator: Adobe Illustrator 25.2.0, SVG Export Plug-In . SVG Version: 6.00 Build 0)  -->
<svg version="1.1" xmlns="http://www.w3.org/2000/svg" xmlns:xlink="http://www.w3.org/1999/xlink" x="0px" y="0px"
	 viewBox="0 0 221 221" style="enable-background:new 0 0 221 221;" xml:space="preserve">
<style type="text/css">
	.st0{display:none;}
	.st1{display:inline;fill:#727171;stroke:#ADCFEE;stroke-width:0.5;stroke-miterlimit:10;}
	.st2{fill:#141828;}
	.st3{fill:none;stroke:#000000;stroke-width:3;stroke-miterlimit:10;}
	.st4{fill:#214A9E;stroke:#1D499D;stroke-miterlimit:10;}
	.st5{fill:none;stroke:#214A9E;stroke-width:5;stroke-miterlimit:10;}
</style>
<g id="图层_4" class="st0">
	<rect x="-187.89" y="-93.76" class="st1" width="468" height="428.86"/>
</g>
<g id="图层_1">
	<path class="st2" d="M180.14,203.83H40.52c-12.64,0-22.88-10.26-22.88-22.91V40.69c0-6.07,2.4-11.89,6.68-16.18l1.32-1.33
		c4.29-4.31,10.12-6.73,16.2-6.73h139.63c12.64,0,22.88,10.26,22.88,22.91v140.23c0,6.07-2.4,11.89-6.68,16.18l-1.32,1.33
		C192.05,201.41,186.22,203.83,180.14,203.83z"/>
</g>
<g id="图层_1_x5F_复制_x5F_2">
	<polygon class="st3" points="201.48,218.5 2.5,218.5 2.5,19.52 19.52,2.5 218.5,2.5 218.5,201.48 	"/>
</g>
<g id="图层_2">
	<polygon class="st4" points="202.41,50.32 202.41,50.32 202.41,18.12 170.22,18.12 170.22,18.12 	"/>
</g>
<g id="图层_1_x5F_复制">
	<path class="st5" d="M189.14,203.83h-42.99h-42.99H60.17H33.49l-16.31-16.31v-26.65V117.9V74.94V31.98v-4.73l3.7-3.7l6.06-6.37
		h5.05h42.99h42.99h42.99h42.99v42.96v42.96v42.96v42.96l0.06,4.96l-4.22,4.22l-5.55,5.55L189.14,203.83z M17.63,187l16.38,16.38
		h26.45h42.83h42.83h42.83l3.64-3.64l3.64-3.64l3.64-3.64l3.64-3.64v-42.8v-42.8v-42.8v-42.8h-42.83h-42.83H75.01H32.18l-3.64,3.64
		l-3.64,3.64l-3.64,3.64l-3.64,3.64v42.8v42.8v42.8V187z"/>
</g>
</svg>
