<?xml version="1.0" encoding="utf-8"?>
<!-- Generator: Adobe Illustrator 25.2.0, SVG Export Plug-In . SVG Version: 6.00 Build 0)  -->
<svg version="1.1" xmlns="http://www.w3.org/2000/svg" xmlns:xlink="http://www.w3.org/1999/xlink" x="0px" y="0px"
	 viewBox="0 0 186.26 31.7" style="enable-background:new 0 0 186.26 31.7;" xml:space="preserve">
<style type="text/css">
	.st0{opacity:0.33;fill:#161929;}
	.st1{fill:none;stroke:#1677FF;stroke-miterlimit:10;}
	.st2{fill:#161929;}
	.st3{fill:#1677FF;}
</style>
<g id="图层_1_x5F_复制">
	<path class="st0" d="M183.26,31.08h-22.55h-22.55h-22.55H93.07H70.53H47.98H25.44H2.89c-0.17,0-0.34-0.02-0.5-0.05
		c-0.16-0.03-0.32-0.08-0.47-0.15c-0.15-0.06-0.29-0.14-0.42-0.23s-0.26-0.19-0.37-0.3c-0.11-0.11-0.22-0.24-0.3-0.37
		c-0.09-0.13-0.17-0.27-0.23-0.42c-0.06-0.15-0.11-0.31-0.15-0.47s-0.05-0.33-0.05-0.5v-3.19v-3.19v-3.19v-3.19v-3.19V9.46V6.27
		V3.09c0-0.17,0.02-0.34,0.05-0.5c0.03-0.16,0.08-0.32,0.15-0.47s0.14-0.29,0.23-0.42s0.19-0.26,0.3-0.37
		c0.11-0.11,0.24-0.22,0.37-0.3c0.13-0.09,0.27-0.17,0.42-0.23s0.31-0.11,0.47-0.15c0.16-0.03,0.33-0.05,0.5-0.05h19.7l2,1.67h24
		l2-1.67h65.03h22.55h22.55h22.55c0.17,0,0.34,0.02,0.5,0.05s0.32,0.08,0.47,0.15c0.15,0.06,0.29,0.14,0.42,0.23
		c0.13,0.09,0.26,0.19,0.37,0.3c0.11,0.11,0.22,0.24,0.3,0.37s0.17,0.27,0.23,0.42c0.06,0.15,0.11,0.31,0.15,0.47
		c0.03,0.16,0.05,0.33,0.05,0.5v3.19v3.19v3.19v3.19v3.19v3.19v3.19v3.19L183.26,31.08z"/>
</g>
<g id="图层_1">
	<path class="st1" d="M183.26,31.08h-22.55h-22.55h-22.55H93.07H70.53H47.98H25.44H2.89c-0.17,0-0.34-0.02-0.5-0.05
		c-0.16-0.03-0.32-0.08-0.47-0.15c-0.15-0.06-0.29-0.14-0.42-0.23s-0.26-0.19-0.37-0.3c-0.11-0.11-0.22-0.24-0.3-0.37
		c-0.09-0.13-0.17-0.27-0.23-0.42c-0.06-0.15-0.11-0.31-0.15-0.47s-0.05-0.33-0.05-0.5v-3.19v-3.19v-3.19v-3.19v-3.19V9.46V6.27
		V3.09c0-0.17,0.02-0.34,0.05-0.5c0.03-0.16,0.08-0.32,0.15-0.47s0.14-0.29,0.23-0.42s0.19-0.26,0.3-0.37
		c0.11-0.11,0.24-0.22,0.37-0.3c0.13-0.09,0.27-0.17,0.42-0.23s0.31-0.11,0.47-0.15c0.16-0.03,0.33-0.05,0.5-0.05h19.7l2,1.67h24
		l2-1.67h65.03h22.55h22.55h22.55c0.17,0,0.34,0.02,0.5,0.05s0.32,0.08,0.47,0.15c0.15,0.06,0.29,0.14,0.42,0.23
		c0.13,0.09,0.26,0.19,0.37,0.3c0.11,0.11,0.22,0.24,0.3,0.37s0.17,0.27,0.23,0.42c0.06,0.15,0.11,0.31,0.15,0.47
		c0.03,0.16,0.05,0.33,0.05,0.5v3.19v3.19v3.19v3.19v3.19v3.19v3.19v3.19L183.26,31.08z"/>
</g>
<g id="图层_3">
	<polygon class="st2" points="28.04,1.18 25.04,1.18 23.53,0 26.53,0 	"/>
	<polygon class="st2" points="32.17,1.18 29.17,1.18 27.65,0 30.65,0 	"/>
	<polygon class="st2" points="36.25,1.18 33.25,1.18 31.74,0 34.74,0 	"/>
	<polygon class="st2" points="40.47,1.18 37.47,1.18 35.96,0 38.96,0 	"/>
	<polygon class="st2" points="44.69,1.18 41.69,1.18 40.17,0 43.17,0 	"/>
	<polygon class="st2" points="48.7,1.18 45.7,1.18 44.19,0 47.19,0 	"/>
</g>
<g id="图层_2">
	<path class="st3" d="M1.94,6.75L1.94,6.75L1.93,3.3c0-0.61,0.49-1.1,1.1-1.1h3.45v0.01L1.94,6.75z"/>
</g>
</svg>
