<?xml version="1.0" encoding="utf-8"?>
<!-- Generator: Adobe Illustrator 25.2.0, SVG Export Plug-In . SVG Version: 6.00 Build 0)  -->
<svg version="1.1" xmlns="http://www.w3.org/2000/svg" xmlns:xlink="http://www.w3.org/1999/xlink" x="0px" y="0px"
	 viewBox="0 0 599 328" style="enable-background:new 0 0 599 328;" xml:space="preserve">
<style type="text/css">
	.st0{opacity:0.64;}
	.st1{fill:#161929;}
	.st2{fill:#1677FF;}
	.st3{opacity:0.6;}
	.st4{fill:none;stroke:#00FFFF;stroke-width:5;stroke-miterlimit:10;}
	.st5{fill:none;stroke:#1677FF;stroke-width:7;stroke-miterlimit:10;}
	.st6{opacity:0.57;fill:#16193D;stroke:#000000;stroke-miterlimit:10;}
	.st7{opacity:0.35;}
</style>
<g id="图层_1">
	<g class="st0">
		<polygon class="st1" points="597,266.89 541.23,323 513.75,323 430.5,323 347.25,323 264,323 192.75,323 170.5,323 87.25,323 
			4,323 4,266.12 4,221.25 4,185.38 4,135.5 4,98.62 4,71.75 4,54.88 4,33.76 34.58,34 87.25,34 170.5,34 192.75,34 264,34 
			303.51,34 430.5,34 513.75,34 597,34 597,54.88 597,71.75 597,98.62 597,135.5 597,185.38 597,221.25 597,266.12 		"/>
	</g>
</g>
<g id="图层_1_x5F_复制">
	<g>
		<path class="st2" d="M263.31,2l39.21,30.58l0.54,0.42h0.69H431.5h83.75H597v23.88v16.88v26.88v36.88v49.88v35.88v44.81L542.06,323
			h-26.81H431.5h-83.75H264h-71.75H169.5H85.75H4v-54.88v-44.88v-35.88V137.5v-36.88V73.75V56.88V31.59L33.59,2h52.16h83.75h22.75
			H263.31 M264,0h-71.75H169.5H85.75H32.76L2,30.76v26.11v16.88v26.88v36.88v49.88v35.88v44.88V325h83.75h83.75h22.75H264h83.75
			h83.75h83.75h27.64L599,268.89v-0.77v-44.88v-35.88V137.5v-36.88V73.75V56.88V31h-83.75H431.5H303.75L264,0L264,0z"/>
	</g>
</g>
<g id="图层_3">
	<g class="st3">
		<polygon class="st2" points="599,277 599,277 599,325 551,325 551,325 		"/>
	</g>
</g>
<g id="图层_4">
	<path class="st4" d="M111,228"/>
	<polyline class="st5" points="3,227 4,324 112,324 	"/>
</g>
<g id="图层_5">
	<polygon class="st6" points="340.5,28 305.5,28 267.5,0 302.5,0 	"/>
	<polygon class="st6" points="381.72,28 346.72,28 308.72,0 343.72,0 	"/>
	<polygon class="st6" points="423.72,28 388.72,28 350.72,0 385.72,0 	"/>
	<polygon class="st6" points="465.46,28 430.46,28 392.46,0 427.46,0 	"/>
	<polygon class="st6" points="508.46,28 473.46,28 435.46,0 470.46,0 	"/>
	<polygon class="st6" points="552.46,28 517.46,28 479.46,0 514.46,0 	"/>
	<polygon class="st6" points="596.46,28 561.46,28 523.46,0 558.46,0 	"/>
</g>
<g id="图层_2">
	<g class="st7">
		<polygon class="st2" points="299,33 6,33 6,33 35,4 262,4 		"/>
	</g>
</g>
</svg>
