<?xml version="1.0" encoding="utf-8"?>
<!-- Generator: Adobe Illustrator 25.2.0, SVG Export Plug-In . SVG Version: 6.00 Build 0)  -->
<svg version="1.1" xmlns="http://www.w3.org/2000/svg" xmlns:xlink="http://www.w3.org/1999/xlink" x="0px" y="0px"
	 viewBox="0 0 450.02 317.33" style="enable-background:new 0 0 450.02 317.33;" xml:space="preserve">
<style type="text/css">
	.st0{fill:#1A1A1A;}
	.st1{fill:none;stroke:#1677FF;stroke-miterlimit:10;}
	.st2{fill:none;stroke:#1677FF;stroke-width:3;stroke-miterlimit:10;}
	.st3{fill:#1677FF;stroke:#1677FF;stroke-miterlimit:10;}
	.st4{fill:#0000FF;stroke:#0000FF;stroke-miterlimit:10;}
</style>
<g id="图层_1">
</g>
<g id="图层_2_x5F_复制">
	<polygon class="st0" points="323.33,307.08 222.51,307.08 61.07,307.08 36.24,282.28 11.4,257.49 11.4,130.36 11.4,3.23 
		197.67,3.23 383.94,3.23 408.78,28.02 433.61,52.81 433.61,155.15 433.61,257.49 371.02,257.49 	"/>
	<polyline class="st1" points="171.8,316.53 167.27,312 25.55,312 3.81,290.26 3.81,169.26 0.54,165.59 0.54,166.83 0.54,294.79 
		20.29,314.53 108.07,314.53 110.32,316.78 	"/>
	<polyline class="st1" points="0.54,300.87 16.38,316.7 103.81,316.7 	"/>
</g>
<g id="图层_2">
	<polygon class="st2" points="323.98,308.35 222.51,308.35 60.03,308.35 35.03,283.35 10.03,258.35 10.03,130.15 10.03,1.96 
		197.51,1.96 384.98,1.96 409.98,26.96 434.98,51.96 434.98,155.15 434.98,258.35 371.98,258.35 	"/>
	<polyline class="st1" points="171.8,316.53 167.27,312 25.55,312 3.81,290.26 3.81,169.26 0.54,165.59 0.54,166.83 0.54,294.79 
		20.29,314.53 108.07,314.53 110.32,316.78 	"/>
	<polyline class="st1" points="0.54,300.87 16.38,316.7 103.81,316.7 	"/>
</g>
<g id="图层_4">
	<polygon class="st3" points="390.41,261.73 374.36,261.73 336.82,300.97 352.87,300.97 	"/>
	<polygon class="st3" points="410.05,261.73 394,261.73 356.46,300.97 372.51,300.97 	"/>
	<polygon class="st3" points="430.07,261.73 414.02,261.73 376.48,300.97 392.52,300.97 	"/>
</g>
<g id="图层_5">
	<polygon class="st3" points="434.9,265.22 396.92,308.35 340.86,308.35 336.82,306.3 336.82,306.3 395.92,306.3 434.9,262.83 
		434.9,264.85 	"/>
</g>
<g id="图层_6">
	<polygon class="st1" points="449.46,167.13 449.46,167.13 439.03,156.7 439.03,54.52 439.03,54.52 449.46,64.96 	"/>
	<polygon class="st3" points="449.46,80.97 449.46,80.97 439.03,70.53 439.03,61.76 439.03,62.76 449.46,73.2 	"/>
	<polygon class="st3" points="449.46,101.17 449.46,101.17 439.03,90.74 439.03,81.97 439.03,81.97 449.46,92.4 	"/>
	<polygon class="st3" points="449.46,118.55 449.46,118.55 439.03,108.12 439.03,99.35 439.03,99.35 449.46,109.78 	"/>
	<polygon class="st3" points="449.46,137.76 449.46,137.76 439.03,127.33 439.03,118.55 439.03,118.55 449.46,128.99 	"/>
	<polygon class="st3" points="449.46,156.97 449.46,156.97 439.03,146.53 439.03,137.76 439.03,137.76 449.46,148.2 	"/>
	<polyline class="st1" points="439.03,162.29 449.58,172.84 449.58,256.63 401.45,310.75 287.27,310.75 	"/>
</g>
<g id="图层_3">
	<polygon class="st4" points="10.03,265.7 10.03,265.7 10.03,288.88 29.49,308.35 52.68,308.35 52.68,308.35 	"/>
</g>
</svg>
